<svg width="20" height="20" viewBox="0 0 20 20" fill="none" xmlns="http://www.w3.org/2000/svg">
<path d="M13.6363 4.54547V15C13.6363 17.0091 12.0091 18.6364 9.99999 18.6364C7.99093 18.6364 6.3636 17.0091 6.3636 15V3.63635C6.3636 2.38181 7.38177 1.36364 8.63631 1.36364C9.89086 1.36364 10.9091 2.38181 10.9091 3.63635V13.1818C10.9091 13.6818 10.5045 14.0909 9.99999 14.0909C9.49545 14.0909 9.09092 13.6818 9.09092 13.1818V4.54547H7.72728V13.1819C7.72728 14.4364 8.74545 15.4546 9.99999 15.4546C11.2545 15.4546 12.2727 14.4364 12.2727 13.1818V3.63635C12.2727 1.62729 10.6454 0 8.63636 0C6.62729 0 5 1.62729 5 3.63635V15C5 17.7636 7.24093 20 9.99999 20C12.7591 20 15 17.7636 15 15V4.54547H13.6363Z" fill="#3CCF91"/>
</svg>
