<svg width="56" height="56" viewBox="0 0 56 56" fill="none" xmlns="http://www.w3.org/2000/svg">
<path d="M0 28C0 12.536 12.536 0 28 0C43.464 0 56 12.536 56 28C56 43.464 43.464 56 28 56C12.536 56 0 43.464 0 28Z" fill="white" fill-opacity="0.6"/>
<path d="M29.4395 24.179C30.5351 24.6475 31.8171 24.1556 32.2833 23.0546C32.2833 23.0311 32.3066 23.0077 32.3066 22.9843C32.7962 21.8598 32.2833 20.5479 31.1644 20.056C30.0688 19.5875 28.7868 20.0794 28.3206 21.1804C28.3206 21.2039 28.2972 21.2273 28.2972 21.2507C27.831 22.3752 28.3439 23.6636 29.4395 24.179ZM16.1758 35.33C15.8961 35.2128 15.593 35.33 15.4532 35.5877C15.4532 35.6111 15.4299 35.6345 15.4299 35.6579C15.29 35.9391 15.4299 36.2904 15.7096 36.4076C15.7329 36.4076 15.7329 36.431 15.7562 36.431C16.0359 36.5716 16.3856 36.431 16.5022 36.1499C16.5022 36.1265 16.5022 36.1265 16.5255 36.103C16.5954 35.7985 16.4555 35.4939 16.1758 35.33ZM24.3811 14.3399C24.6608 14.4805 25.0105 14.3399 25.127 14.0588C25.127 14.0354 25.127 14.0354 25.1503 14.012C25.2902 13.7309 25.1503 13.3795 24.8706 13.2623C24.8473 13.2623 24.8473 13.2389 24.824 13.2389C24.5443 13.0984 24.2179 13.2155 24.0781 13.4966C24.0781 13.52 24.0547 13.5435 24.0547 13.5669C23.9382 13.8714 24.0781 14.2228 24.3811 14.3399ZM30.4418 41.6785C30.1388 41.5614 29.7891 41.7019 29.6726 42.0065C29.556 42.311 29.6959 42.6624 29.9989 42.7795C30.3019 42.8967 30.6516 42.7561 30.7682 42.4516C30.8381 42.147 30.7215 41.8425 30.4418 41.6785ZM40.2788 20.1028C39.9758 19.9857 39.6261 20.1263 39.5096 20.4308C39.393 20.7353 39.5329 21.0867 39.8359 21.2039C40.139 21.321 40.4886 21.1804 40.6052 20.8759C40.6751 20.5714 40.5586 20.2668 40.2788 20.1028ZM38.6937 20.5011C38.2275 20.2668 37.6447 20.4777 37.435 20.9462C37.4116 20.9696 37.4116 21.0165 37.3883 21.0399C37.2951 21.2742 37.2718 21.5553 37.365 21.7895C36.9221 20.8759 35.8032 20.5011 34.9174 20.9696C34.5211 21.157 34.2181 21.5084 34.0316 21.9067C33.8918 22.2581 33.8451 22.6329 33.9151 22.9843C32.8428 24.2493 31.584 25.0458 30.4651 25.1864C30.232 25.2098 30.0222 25.2098 29.7891 25.1864C29.556 25.1629 29.3229 25.0926 29.1131 24.9989C28.0408 24.507 27.3881 23.2185 27.2483 21.5318C27.2017 21.1804 27.2017 20.8056 27.225 20.4542C27.225 20.2902 27.2483 20.1263 27.2483 19.9857C27.5746 19.7749 27.8077 19.4937 27.9709 19.1424C28.3672 18.1819 27.9476 17.0808 27.0152 16.6592C26.6189 16.4717 26.176 16.4483 25.7564 16.5889C25.9895 16.4952 26.176 16.2843 26.2692 16.0501C26.5023 15.5581 26.2925 14.9725 25.803 14.7382C25.7797 14.7382 25.7564 14.7148 25.7331 14.7148C25.2669 14.4805 24.6841 14.6913 24.4743 15.1599C24.451 15.1833 24.451 15.2302 24.4277 15.2536C24.1946 15.7455 24.4044 16.3312 24.8939 16.5655C24.9172 16.5655 24.9405 16.5889 24.9638 16.5889C25.1736 16.6826 25.4067 16.706 25.6165 16.6592C25.1503 16.8466 24.8007 17.198 24.6142 17.6665C24.2878 18.463 24.521 19.4 25.197 19.9388C25.1736 20.0794 25.1736 20.22 25.1736 20.3371C25.1503 20.7822 25.1503 21.2507 25.197 21.6958C25.3368 23.4294 25.9429 24.9287 26.9452 25.9594C25.873 26.0297 24.7541 26.5451 23.6818 27.4119C22.423 28.4192 21.2109 29.9888 20.2318 31.8863C19.5791 31.98 19.043 32.4017 18.7866 33.0108C18.6001 33.4793 18.5768 33.9947 18.7633 34.4632C18.6467 34.2758 18.4835 34.1118 18.2737 34.0181C17.8075 33.7838 17.2248 33.9947 17.015 34.4632C16.9917 34.4866 16.9917 34.5335 16.9684 34.5569C16.7353 35.0488 16.945 35.6345 17.4346 35.8688C17.4579 35.8688 17.4812 35.8922 17.5045 35.8922C17.9707 36.1265 18.5535 35.9156 18.7633 35.4471C18.7866 35.4237 18.7866 35.3768 18.8099 35.3534C18.9031 35.1191 18.9264 34.838 18.8332 34.6038C19.2761 35.5174 20.395 35.8922 21.2808 35.4237C21.6771 35.2363 21.9801 34.8849 22.1666 34.4866C22.3298 34.1118 22.3531 33.6667 22.2598 33.2684C23.0524 31.5349 24.0781 30.1762 25.1736 29.286C26.1061 28.5129 26.9919 28.1615 27.6212 28.466C27.9709 28.6535 28.2506 28.958 28.3905 29.3328C28.4837 29.5437 28.5537 29.8013 28.6469 30.0825C28.9733 31.5583 28.7168 33.6198 27.8777 35.7516C26.9685 36.2904 26.6655 37.4618 27.2017 38.3754C27.3881 38.7034 27.6912 38.9845 28.0408 39.1485C28.4371 39.3359 28.88 39.3593 29.2996 39.2187C29.0665 39.3124 28.88 39.5233 28.7868 39.7575C28.5537 40.2495 28.7635 40.8352 29.253 41.0694C29.2763 41.0694 29.2996 41.0928 29.3229 41.0928C29.7891 41.3271 30.3719 41.1163 30.5817 40.6477C30.605 40.6243 30.605 40.5775 30.6283 40.554C30.8614 40.0621 30.6516 39.4764 30.1621 39.2422C30.1388 39.2422 30.1155 39.2187 30.0922 39.2187C29.8824 39.125 29.6493 39.1016 29.4395 39.1485C29.9057 38.9611 30.2553 38.6097 30.4418 38.1411C30.6982 37.532 30.6283 36.8293 30.2553 36.267C31.1178 33.8307 31.3742 31.3709 31.0013 29.5202C30.908 29.0986 30.7915 28.7003 30.6516 28.3021C30.4651 27.9038 30.2553 27.529 29.9989 27.1776C30.2553 27.201 30.5351 27.1776 30.7915 27.1073C32.4232 26.8965 34.1016 25.8891 35.5002 24.2962C36.3394 24.4367 37.1785 23.9682 37.5049 23.1717C37.6914 22.7032 37.7147 22.1878 37.5282 21.7193C37.6447 21.9067 37.8079 22.0706 38.0177 22.1644C38.4839 22.3986 39.0667 22.1878 39.2765 21.7193C39.2998 21.6958 39.2998 21.649 39.3231 21.6255C39.4163 21.3679 39.1832 20.7353 38.6937 20.5011Z" fill="#1D233F"/>
</svg>
