<svg width="56" height="56" viewBox="0 0 56 56" fill="none" xmlns="http://www.w3.org/2000/svg">
<path d="M0 28C0 12.536 12.536 0 28 0C43.464 0 56 12.536 56 28C56 43.464 43.464 56 28 56C12.536 56 0 43.464 0 28Z" fill="white" fill-opacity="0.6"/>
<path d="M18 20.2553H14L19.3333 35.7447H23.3333L25.3333 27.5057L27.3333 35.7447H31.3333L36.3333 20.2553H32.3333L29.3333 30.8013L27.3333 20.2553H23.3333L21 30.8013L18 20.2553Z" fill="#1D233F"/>
<path d="M42 33.1082C42 34.5643 40.8061 35.7447 39.3333 35.7447C37.8606 35.7447 36.6667 34.5643 36.6667 33.1082C36.6667 31.6521 37.8606 30.4717 39.3333 30.4717C40.8061 30.4717 42 31.6521 42 33.1082Z" fill="#1D233F"/>
</svg>
