<svg width="56" height="56" viewBox="0 0 56 56" fill="none" xmlns="http://www.w3.org/2000/svg">
<path d="M0 28C0 12.536 12.536 0 28 0C43.464 0 56 12.536 56 28C56 43.464 43.464 56 28 56C12.536 56 0 43.464 0 28Z" fill="white" fill-opacity="0.6"/>
<path d="M33.59 24.1927V27.1956C35.31 26.7309 38.75 25.0721 38.75 22.155C38.75 18.5086 33.59 16.5781 27.785 16.5781C21.98 16.5781 17.25 18.7231 17.25 22.584C17.25 26.4449 28 29.0189 30.58 29.0189C32.085 29.0189 38.019 33.9522 27.785 33.9522C24.173 33.9522 22.195 33.2015 22.195 31.3783V28.5899C18.11 30.3058 17.25 32.7725 17.25 33.845C17.25 34.9175 19.2925 39.4219 28 39.4219C34.966 39.4219 37.9258 36.0614 38.535 34.3812C39.0725 32.415 38.234 28.3539 30.58 27.8391C22.926 27.3243 22.41 24.6217 22.41 24.1927C22.41 23.7637 24.216 21.726 28 21.726C31.784 21.726 33.59 23.7637 33.59 24.1927Z" fill="#1D233F"/>
</svg>
